<?xml version="1.0" encoding="UTF-8"?>
<!DOCTYPE svg PUBLIC "-//W3C//DTD SVG 1.1//EN" "http://www.w3.org/Graphics/SVG/1.1/DTD/svg11.dtd">
<svg xmlns="http://www.w3.org/2000/svg" version="1.1" width="566px" height="566px" style="shape-rendering:geometricPrecision; text-rendering:geometricPrecision; image-rendering:optimizeQuality; fill-rule:evenodd; clip-rule:evenodd" xmlns:xlink="http://www.w3.org/1999/xlink">
<g><path style="opacity:0.992" fill="#fefefe" d="M 280.5,16.5 C 295.169,16.5574 308.503,20.724 320.5,29C 392.667,101.167 464.833,173.333 537,245.5C 550.51,266.09 552.51,287.757 543,310.5C 539.738,316.693 535.738,322.36 531,327.5C 463.167,395.333 395.333,463.167 327.5,531C 297.833,555.667 268.167,555.667 238.5,531C 170.667,463.167 102.833,395.333 35,327.5C 16.1678,306.036 12.1678,282.036 23,255.5C 25,252.167 27,248.833 29,245.5C 101.167,173.333 173.333,101.167 245.5,29C 256.157,21.7275 267.823,17.5609 280.5,16.5 Z"/></g>
<g><path style="opacity:1" fill="#0a0707" d="M 362.5,198.5 C 362.5,207.167 362.5,215.833 362.5,224.5C 358.135,223.227 353.801,223.227 349.5,224.5C 349.5,215.833 349.5,207.167 349.5,198.5C 349.668,169.177 336.335,148.677 309.5,137C 279.352,127.571 254.519,135.071 235,159.5C 227.452,171.075 224.285,183.742 225.5,197.5C 225.5,206.5 225.5,215.5 225.5,224.5C 221.307,222.377 216.973,222.044 212.5,223.5C 212.5,214.833 212.5,206.167 212.5,197.5C 211.675,166.164 225.008,142.997 252.5,128C 288.175,113.33 319.341,119.83 346,147.5C 357.813,162.404 363.313,179.404 362.5,198.5 Z"/></g>
<g><path style="opacity:1" fill="#fdfdfd" d="M 349.5,198.5 C 308.239,197.506 266.906,197.173 225.5,197.5C 224.285,183.742 227.452,171.075 235,159.5C 254.519,135.071 279.352,127.571 309.5,137C 336.335,148.677 349.668,169.177 349.5,198.5 Z"/></g>
<g><path style="opacity:1" fill="#fdb405" d="M 212.5,197.5 C 212.5,206.167 212.5,214.833 212.5,223.5C 204.964,229.574 204.63,236.074 211.5,243C 219.825,246.542 225.992,244.376 230,236.5C 230.766,231.628 229.266,227.628 225.5,224.5C 225.5,215.5 225.5,206.5 225.5,197.5C 266.906,197.173 308.239,197.506 349.5,198.5C 349.5,207.167 349.5,215.833 349.5,224.5C 344.809,227.944 343.309,232.61 345,238.5C 349.696,245.913 355.863,247.413 363.5,243C 369.065,236.474 368.732,230.307 362.5,224.5C 362.5,215.833 362.5,207.167 362.5,198.5C 372.172,198.334 381.839,198.5 391.5,199C 397.731,200.963 401.564,205.13 403,211.5C 404.163,220.477 404.996,229.477 405.5,238.5C 378.228,266.803 344.894,283.47 305.5,288.5C 305.5,283.167 305.5,277.833 305.5,272.5C 301.167,272.5 296.833,272.5 292.5,272.5C 292.5,278.167 292.5,283.833 292.5,289.5C 287.5,289.5 282.5,289.5 277.5,289.5C 277.5,283.833 277.5,278.167 277.5,272.5C 273.167,272.5 268.833,272.5 264.5,272.5C 264.5,277.833 264.5,283.167 264.5,288.5C 252.567,286.933 240.9,284.266 229.5,280.5C 223.078,277.13 216.412,274.13 209.5,271.5C 205.836,268.665 201.836,266.332 197.5,264.5C 185.604,255.612 174.27,245.946 163.5,235.5C 163.785,226.787 164.618,218.121 166,209.5C 167.833,203.667 171.667,199.833 177.5,198C 189.162,197.5 200.829,197.333 212.5,197.5 Z"/></g>
<g><path style="opacity:1" fill="#fdfbf8" d="M 225.5,224.5 C 229.266,227.628 230.766,231.628 230,236.5C 225.992,244.376 219.825,246.542 211.5,243C 204.63,236.074 204.964,229.574 212.5,223.5C 216.973,222.044 221.307,222.377 225.5,224.5 Z"/></g>
<g><path style="opacity:1" fill="#fefcf8" d="M 362.5,224.5 C 368.732,230.307 369.065,236.474 363.5,243C 355.863,247.413 349.696,245.913 345,238.5C 343.309,232.61 344.809,227.944 349.5,224.5C 353.801,223.227 358.135,223.227 362.5,224.5 Z"/></g>
<g><path style="opacity:1" fill="#fc6202" d="M 163.5,235.5 C 174.27,245.946 185.604,255.612 197.5,264.5C 199.246,267.203 201.579,269.203 204.5,270.5C 206.045,271.452 207.712,271.785 209.5,271.5C 212.806,274.158 216.473,276.324 220.5,278C 223.432,279.145 226.432,279.978 229.5,280.5C 240.544,285.585 252.211,288.918 264.5,290.5C 264.918,302.895 264.418,315.228 263,327.5C 258.585,337.421 251.085,343.421 240.5,345.5C 235.463,345.587 230.463,345.254 225.5,344.5C 213.265,339.723 206.598,330.723 205.5,317.5C 201.167,317.5 196.833,317.5 192.5,317.5C 196.331,346.087 212.664,359.587 241.5,358C 261.587,354.246 273.753,342.413 278,322.5C 278.5,312.172 278.666,301.839 278.5,291.5C 282.833,291.5 287.167,291.5 291.5,291.5C 292.108,304.132 292.941,316.798 294,329.5C 307.415,357.644 328.581,365.477 357.5,353C 377.323,339.209 381.49,321.709 370,300.5C 360.224,289.871 348.058,285.205 333.5,286.5C 361.422,278.047 385.756,263.714 406.5,243.5C 412.428,292.003 418.261,340.67 424,389.5C 424.667,396.833 424.667,404.167 424,411.5C 421.833,415 419,417.833 415.5,420C 407.507,420.5 399.507,420.666 391.5,420.5C 391.182,403.034 382.849,391.201 366.5,385C 341.456,378.605 324.289,387.438 315,411.5C 314.502,414.482 314.335,417.482 314.5,420.5C 293.5,420.5 272.5,420.5 251.5,420.5C 251.042,400.526 241.042,388.026 221.5,383C 202.103,379.785 187.603,386.618 178,403.5C 175.618,408.91 174.451,414.576 174.5,420.5C 168.158,420.666 161.825,420.5 155.5,420C 147.906,416.648 143.906,410.815 143.5,402.5C 146.015,383.496 148.348,364.496 150.5,345.5C 151.806,340.384 152.473,335.051 152.5,329.5C 155.801,298.071 159.467,266.737 163.5,235.5 Z"/></g>
<g><path style="opacity:1" fill="#29048d" d="M 405.5,238.5 C 406.451,239.919 406.784,241.585 406.5,243.5C 385.756,263.714 361.422,278.047 333.5,286.5C 330.273,286.676 327.273,287.343 324.5,288.5C 318.18,289.593 311.847,290.593 305.5,291.5C 304.167,290.5 304.167,289.5 305.5,288.5C 344.894,283.47 378.228,266.803 405.5,238.5 Z"/></g>
<g><path style="opacity:1" fill="#a53c32" d="M 197.5,264.5 C 201.836,266.332 205.836,268.665 209.5,271.5C 207.712,271.785 206.045,271.452 204.5,270.5C 201.579,269.203 199.246,267.203 197.5,264.5 Z"/></g>
<g><path style="opacity:1" fill="#fffbf4" d="M 277.5,289.5 C 277.328,290.492 277.662,291.158 278.5,291.5C 278.666,301.839 278.5,312.172 278,322.5C 273.753,342.413 261.587,354.246 241.5,358C 212.664,359.587 196.331,346.087 192.5,317.5C 196.833,317.5 201.167,317.5 205.5,317.5C 206.598,330.723 213.265,339.723 225.5,344.5C 228.186,345.991 231.186,346.657 234.5,346.5C 236.696,346.495 238.696,346.162 240.5,345.5C 251.085,343.421 258.585,337.421 263,327.5C 264.418,315.228 264.918,302.895 264.5,290.5C 264.5,289.833 264.5,289.167 264.5,288.5C 264.5,283.167 264.5,277.833 264.5,272.5C 268.833,272.5 273.167,272.5 277.5,272.5C 277.5,278.167 277.5,283.833 277.5,289.5 Z"/></g>
<g><path style="opacity:1" fill="#fffcf6" d="M 305.5,288.5 C 304.167,289.5 304.167,290.5 305.5,291.5C 305.333,302.172 305.5,312.839 306,323.5C 311.472,340.157 322.972,347.657 340.5,346C 356.942,341.891 364.442,331.391 363,314.5C 360.101,307.268 354.934,302.435 347.5,300C 341.833,299.333 336.167,299.333 330.5,300C 327.804,300.765 325.304,301.932 323,303.5C 320.428,300.597 318.261,297.431 316.5,294C 316.645,293.228 316.978,292.561 317.5,292C 319.925,290.787 322.259,289.621 324.5,288.5C 327.273,287.343 330.273,286.676 333.5,286.5C 348.058,285.205 360.224,289.871 370,300.5C 381.49,321.709 377.323,339.209 357.5,353C 328.581,365.477 307.415,357.644 294,329.5C 292.941,316.798 292.108,304.132 291.5,291.5C 292.338,291.158 292.672,290.492 292.5,289.5C 292.5,283.833 292.5,278.167 292.5,272.5C 296.833,272.5 301.167,272.5 305.5,272.5C 305.5,277.833 305.5,283.167 305.5,288.5 Z"/></g>
<g><path style="opacity:1" fill="#561a5d" d="M 209.5,271.5 C 216.412,274.13 223.078,277.13 229.5,280.5C 226.432,279.978 223.432,279.145 220.5,278C 216.473,276.324 212.806,274.158 209.5,271.5 Z"/></g>
<g><path style="opacity:1" fill="#400d7a" d="M 229.5,280.5 C 240.9,284.266 252.567,286.933 264.5,288.5C 264.5,289.167 264.5,289.833 264.5,290.5C 252.211,288.918 240.544,285.585 229.5,280.5 Z"/></g>
<g><path style="opacity:1" fill="#421c8b" d="M 277.5,289.5 C 282.5,289.5 287.5,289.5 292.5,289.5C 292.672,290.492 292.338,291.158 291.5,291.5C 287.167,291.5 282.833,291.5 278.5,291.5C 277.662,291.158 277.328,290.492 277.5,289.5 Z"/></g>
<g><path style="opacity:1" fill="#fc6202" d="M 324.5,288.5 C 322.259,289.621 319.925,290.787 317.5,292C 316.978,292.561 316.645,293.228 316.5,294C 318.261,297.431 320.428,300.597 323,303.5C 325.304,301.932 327.804,300.765 330.5,300C 336.167,299.333 341.833,299.333 347.5,300C 354.934,302.435 360.101,307.268 363,314.5C 364.442,331.391 356.942,341.891 340.5,346C 322.972,347.657 311.472,340.157 306,323.5C 305.5,312.839 305.333,302.172 305.5,291.5C 311.847,290.593 318.18,289.593 324.5,288.5 Z"/></g>
<g><path style="opacity:1" fill="#ffa464" d="M 152.5,329.5 C 152.473,335.051 151.806,340.384 150.5,345.5C 150.376,339.931 151.043,334.598 152.5,329.5 Z"/></g>
<g><path style="opacity:1" fill="#ffc47a" d="M 225.5,344.5 C 230.463,345.254 235.463,345.587 240.5,345.5C 238.696,346.162 236.696,346.495 234.5,346.5C 231.186,346.657 228.186,345.991 225.5,344.5 Z"/></g>
<g><path style="opacity:1" fill="#040304" d="M 206.5,390.5 C 222.917,388.459 234.75,394.793 242,409.5C 245.903,426.799 239.737,438.965 223.5,446C 203.714,450.694 190.547,443.528 184,424.5C 182.26,406.966 189.76,395.632 206.5,390.5 Z"/></g>
<g><path style="opacity:1" fill="#060505" d="M 346.5,390.5 C 360.457,389.397 371.624,394.397 380,405.5C 387.031,423.747 381.864,437.247 364.5,446C 341.328,451.149 327.328,442.149 322.5,419C 324.795,404.515 332.795,395.015 346.5,390.5 Z"/></g>
<g><path style="opacity:1" fill="#f4f0f2" d="M 209.5,411.5 C 217.07,410.164 220.903,413.164 221,420.5C 218.89,425.945 215.056,427.778 209.5,426C 204.202,421.092 204.202,416.258 209.5,411.5 Z"/></g>
<g><path style="opacity:1" fill="#f5f2f3" d="M 349.5,412.5 C 355.979,410.784 359.979,413.117 361.5,419.5C 359.969,426.044 355.969,428.211 349.5,426C 344.186,421.376 344.186,416.876 349.5,412.5 Z"/></g>
</svg>
