<?xml version="1.0" encoding="UTF-8"?>
<!DOCTYPE svg PUBLIC "-//W3C//DTD SVG 1.1//EN" "http://www.w3.org/Graphics/SVG/1.1/DTD/svg11.dtd">
<svg xmlns="http://www.w3.org/2000/svg" version="1.1" width="887px" height="671px" style="shape-rendering:geometricPrecision; text-rendering:geometricPrecision; image-rendering:optimizeQuality; fill-rule:evenodd; clip-rule:evenodd" xmlns:xlink="http://www.w3.org/1999/xlink">
<g><path style="opacity:0.905" fill="#020100" d="M 256.5,251.5 C 255.507,259.984 255.174,268.651 255.5,277.5C 251.5,276.167 247.5,276.167 243.5,277.5C 243.826,268.651 243.493,259.984 242.5,251.5C 242.501,219.668 227.167,199.502 196.5,191C 172.427,188.404 153.427,196.904 139.5,216.5C 133.329,227.354 130.329,239.021 130.5,251.5C 130.5,260.5 130.5,269.5 130.5,278.5C 126.684,276.29 122.684,275.956 118.5,277.5C 118.826,268.651 118.493,259.984 117.5,251.5C 117.711,214.47 135.378,190.303 170.5,179C 204.193,173.27 230.027,184.77 248,213.5C 253.724,225.503 256.557,238.169 256.5,251.5 Z M 242.5,251.5 C 205.167,251.5 167.833,251.5 130.5,251.5C 130.329,239.021 133.329,227.354 139.5,216.5C 153.427,196.904 172.427,188.404 196.5,191C 227.167,199.502 242.501,219.668 242.5,251.5 Z"/></g>
<g><path style="opacity:1" fill="#faaf3b" d="M 117.5,251.5 C 118.493,259.984 118.826,268.651 118.5,277.5C 113.879,280.589 112.379,284.923 114,290.5C 115.312,295.308 118.479,297.642 123.5,297.5C 128.394,297.823 131.894,295.823 134,291.5C 135.461,286.326 134.294,281.993 130.5,278.5C 130.5,269.5 130.5,260.5 130.5,251.5C 167.833,251.5 205.167,251.5 242.5,251.5C 243.493,259.984 243.826,268.651 243.5,277.5C 237.901,284.286 238.235,290.786 244.5,297C 256.148,299.018 261.314,294.184 260,282.5C 258.293,280.963 256.793,279.296 255.5,277.5C 255.174,268.651 255.507,259.984 256.5,251.5C 264.507,251.334 272.507,251.5 280.5,252C 287.369,253.536 291.536,257.702 293,264.5C 294.56,273.096 295.393,281.763 295.5,290.5C 270.941,318.005 240.275,334.338 203.5,339.5C 203.5,334.167 203.5,328.833 203.5,323.5C 199.5,323.5 195.5,323.5 191.5,323.5C 191.5,329.167 191.5,334.833 191.5,340.5C 187.167,340.5 182.833,340.5 178.5,340.5C 178.5,334.833 178.5,329.167 178.5,323.5C 174.5,323.5 170.5,323.5 166.5,323.5C 166.5,328.833 166.5,334.167 166.5,339.5C 148.292,336.612 130.959,330.946 114.5,322.5C 113.341,320.75 111.674,319.75 109.5,319.5C 95.8744,311.716 84.2078,301.55 74.5,289C 73.9056,288.536 73.2389,288.369 72.5,288.5C 73.5887,279.874 74.7554,271.207 76,262.5C 78.0381,256.462 82.2048,252.962 88.5,252C 98.1609,251.5 107.828,251.334 117.5,251.5 Z"/></g>
<g><path style="opacity:0.933" fill="#f38f00" d="M 480.5,254.5 C 515.855,251.689 532.022,268.022 529,303.5C 522.584,327.813 506.751,338.313 481.5,335C 461.955,329.267 451.955,316.1 451.5,295.5C 451.65,274.8 461.316,261.133 480.5,254.5 Z M 486.5,270.5 C 497.215,269.103 504.382,273.436 508,283.5C 511.196,294.773 509.529,305.106 503,314.5C 489.107,322.577 479.107,319.243 473,304.5C 470.682,294.39 472.182,284.89 477.5,276C 480.263,273.626 483.263,271.792 486.5,270.5 Z"/></g>
<g><path style="opacity:0.951" fill="#f38f00" d="M 411.5,255.5 C 417.5,255.5 423.5,255.5 429.5,255.5C 429.953,276.22 429.453,296.887 428,317.5C 423.618,329.792 414.785,335.792 401.5,335.5C 397.67,335.633 394.004,334.966 390.5,333.5C 389.167,327.5 389.167,321.5 390.5,315.5C 402.955,322.19 409.789,318.523 411,304.5C 411.5,288.17 411.667,271.837 411.5,255.5 Z"/></g>
<g><path style="opacity:0.948" fill="#f38f00" d="M 546.5,255.5 C 566.833,255.5 587.167,255.5 607.5,255.5C 607.766,259.571 607.433,263.571 606.5,267.5C 594.167,284.167 581.833,300.833 569.5,317.5C 582.149,318.499 594.816,318.832 607.5,318.5C 607.5,323.5 607.5,328.5 607.5,333.5C 586.167,333.5 564.833,333.5 543.5,333.5C 543.334,329.486 543.501,325.486 544,321.5C 556.743,305.012 569.243,288.346 581.5,271.5C 569.852,270.501 558.186,270.168 546.5,270.5C 546.5,265.5 546.5,260.5 546.5,255.5 Z"/></g>
<g><path style="opacity:0.948" fill="#f38f00" d="M 624.5,255.5 C 644.833,255.5 665.167,255.5 685.5,255.5C 685.867,259.967 685.367,264.3 684,268.5C 672.199,285.267 660.033,301.767 647.5,318C 660.162,318.5 672.829,318.667 685.5,318.5C 685.5,323.5 685.5,328.5 685.5,333.5C 664.167,333.5 642.833,333.5 621.5,333.5C 621.334,329.486 621.501,325.486 622,321.5C 634.743,305.012 647.243,288.346 659.5,271.5C 647.852,270.501 636.186,270.168 624.5,270.5C 624.5,265.5 624.5,260.5 624.5,255.5 Z"/></g>
<g><path style="opacity:0.958" fill="#f38f00" d="M 706.5,255.5 C 719.171,255.333 731.838,255.5 744.5,256C 762.715,258.979 767.882,268.813 760,285.5C 757.552,287.631 755.052,289.631 752.5,291.5C 766.462,297.873 770.296,308.206 764,322.5C 760.855,326.491 757.022,329.657 752.5,332C 737.225,333.435 721.891,333.935 706.5,333.5C 706.5,307.5 706.5,281.5 706.5,255.5 Z M 725.5,269.5 C 732.006,268.51 737.839,269.843 743,273.5C 744.443,278.212 743.277,282.045 739.5,285C 734.964,286.379 730.297,286.879 725.5,286.5C 725.5,280.833 725.5,275.167 725.5,269.5 Z M 725.5,300.5 C 730.874,300.523 736.207,301.023 741.5,302C 749.478,307.288 749.478,312.622 741.5,318C 736.344,319.962 731.011,320.795 725.5,320.5C 725.5,313.833 725.5,307.167 725.5,300.5 Z"/></g>
<g><path style="opacity:0.951" fill="#f38f00" d="M 778.5,255.5 C 785.532,255.17 792.532,255.503 799.5,256.5C 804.479,266.929 808.979,277.595 813,288.5C 816.684,277.467 821.184,266.801 826.5,256.5C 833.167,255.167 839.833,255.167 846.5,256.5C 837.806,272.555 829.639,288.888 822,305.5C 821.5,314.827 821.334,324.161 821.5,333.5C 815.167,333.5 808.833,333.5 802.5,333.5C 802.666,324.494 802.5,315.494 802,306.5C 795.11,290.521 787.443,274.855 779,259.5C 778.51,258.207 778.343,256.873 778.5,255.5 Z"/></g>
<g><path style="opacity:1" fill="#fefcfa" d="M 130.5,278.5 C 134.294,281.993 135.461,286.326 134,291.5C 131.894,295.823 128.394,297.823 123.5,297.5C 118.479,297.642 115.312,295.308 114,290.5C 112.379,284.923 113.879,280.589 118.5,277.5C 122.684,275.956 126.684,276.29 130.5,278.5 Z"/></g>
<g><path style="opacity:1" fill="#fefcfa" d="M 255.5,277.5 C 256.793,279.296 258.293,280.963 260,282.5C 261.314,294.184 256.148,299.018 244.5,297C 238.235,290.786 237.901,284.286 243.5,277.5C 247.5,276.167 251.5,276.167 255.5,277.5 Z"/></g>
<g><path style="opacity:0.986" fill="#f38f01" d="M 72.5,288.5 C 73.2389,288.369 73.9056,288.536 74.5,289C 84.2078,301.55 95.8744,311.716 109.5,319.5C 110.659,321.25 112.326,322.25 114.5,322.5C 130.297,332.718 147.63,339.052 166.5,341.5C 166.667,352.172 166.5,362.839 166,373.5C 160.468,390.188 148.968,397.022 131.5,394C 119.105,389.448 112.772,380.615 112.5,367.5C 108.5,367.5 104.5,367.5 100.5,367.5C 101.185,387.028 110.852,399.861 129.5,406C 154.72,409.154 170.887,398.654 178,374.5C 178.5,363.839 178.667,353.172 178.5,342.5C 182.833,342.5 187.167,342.5 191.5,342.5C 191.334,352.839 191.5,363.172 192,373.5C 198.333,398.161 214.167,408.994 239.5,406C 262.478,398.216 271.644,382.383 267,358.5C 261.989,347.408 253.489,340.742 241.5,338.5C 237.833,337.833 234.167,337.167 230.5,336.5C 255.989,328.424 277.989,314.757 296.5,295.5C 301.96,343.357 307.46,391.357 313,439.5C 313.667,445.5 313.667,451.5 313,457.5C 311.167,461.333 308.333,464.167 304.5,466C 297.174,466.5 289.841,466.666 282.5,466.5C 281.688,451.361 274.688,440.194 261.5,433C 244.742,427.231 230.575,431.065 219,444.5C 214.97,451.286 212.804,458.619 212.5,466.5C 192.833,466.5 173.167,466.5 153.5,466.5C 153.635,451.27 146.968,440.103 133.5,433C 117.778,427.515 104.111,430.681 92.5,442.5C 86.9891,449.528 84.3224,457.528 84.5,466.5C 77.825,466.666 71.1583,466.5 64.5,466C 58.3693,462.869 55.036,457.869 54.5,451C 61.0106,396.882 67.0106,342.715 72.5,288.5 Z"/></g>
<g><path style="opacity:1" fill="#31448b" d="M 295.5,290.5 C 296.451,291.919 296.784,293.585 296.5,295.5C 277.989,314.757 255.989,328.424 230.5,336.5C 226.975,337.21 223.642,338.21 220.5,339.5C 214.875,340.493 209.208,341.16 203.5,341.5C 203.5,340.833 203.5,340.167 203.5,339.5C 240.275,334.338 270.941,318.005 295.5,290.5 Z"/></g>
<g><path style="opacity:1" fill="#7f6e65" d="M 109.5,319.5 C 111.674,319.75 113.341,320.75 114.5,322.5C 112.326,322.25 110.659,321.25 109.5,319.5 Z"/></g>
<g><path style="opacity:1" fill="#fffbf8" d="M 178.5,340.5 C 178.5,341.167 178.5,341.833 178.5,342.5C 178.667,353.172 178.5,363.839 178,374.5C 170.887,398.654 154.72,409.154 129.5,406C 110.852,399.861 101.185,387.028 100.5,367.5C 104.5,367.5 108.5,367.5 112.5,367.5C 112.772,380.615 119.105,389.448 131.5,394C 148.968,397.022 160.468,390.188 166,373.5C 166.5,362.839 166.667,352.172 166.5,341.5C 166.5,340.833 166.5,340.167 166.5,339.5C 166.5,334.167 166.5,328.833 166.5,323.5C 170.5,323.5 174.5,323.5 178.5,323.5C 178.5,329.167 178.5,334.833 178.5,340.5 Z"/></g>
<g><path style="opacity:1" fill="#fffcf8" d="M 203.5,339.5 C 203.5,340.167 203.5,340.833 203.5,341.5C 203.334,351.506 203.5,361.506 204,371.5C 208.574,389.38 220.074,396.88 238.5,394C 255.714,386.683 260.548,374.516 253,357.5C 242.823,348.528 231.656,347.194 219.5,353.5C 217.302,350.467 215.302,347.3 213.5,344C 215.577,342.295 217.91,341.128 220.5,340.5C 227.351,338.716 234.351,338.05 241.5,338.5C 253.489,340.742 261.989,347.408 267,358.5C 271.644,382.383 262.478,398.216 239.5,406C 214.167,408.994 198.333,398.161 192,373.5C 191.5,363.172 191.334,352.839 191.5,342.5C 191.5,341.833 191.5,341.167 191.5,340.5C 191.5,334.833 191.5,329.167 191.5,323.5C 195.5,323.5 199.5,323.5 203.5,323.5C 203.5,328.833 203.5,334.167 203.5,339.5 Z"/></g>
<g><path style="opacity:1" fill="#e0be93" d="M 230.5,336.5 C 234.167,337.167 237.833,337.833 241.5,338.5C 234.351,338.05 227.351,338.716 220.5,340.5C 220.5,340.167 220.5,339.833 220.5,339.5C 223.642,338.21 226.975,337.21 230.5,336.5 Z"/></g>
<g><path style="opacity:1" fill="#535379" d="M 114.5,322.5 C 130.959,330.946 148.292,336.612 166.5,339.5C 166.5,340.167 166.5,340.833 166.5,341.5C 147.63,339.052 130.297,332.718 114.5,322.5 Z"/></g>
<g><path style="opacity:1" fill="#294692" d="M 178.5,340.5 C 182.833,340.5 187.167,340.5 191.5,340.5C 191.5,341.167 191.5,341.833 191.5,342.5C 187.167,342.5 182.833,342.5 178.5,342.5C 178.5,341.833 178.5,341.167 178.5,340.5 Z"/></g>
<g><path style="opacity:1" fill="#f38f04" d="M 220.5,339.5 C 220.5,339.833 220.5,340.167 220.5,340.5C 217.91,341.128 215.577,342.295 213.5,344C 215.302,347.3 217.302,350.467 219.5,353.5C 231.656,347.194 242.823,348.528 253,357.5C 260.548,374.516 255.714,386.683 238.5,394C 220.074,396.88 208.574,389.38 204,371.5C 203.5,361.506 203.334,351.506 203.5,341.5C 209.208,341.16 214.875,340.493 220.5,339.5 Z"/></g>
<g><path style="opacity:0.813" fill="#000000" d="M 400.5,363.5 C 405.844,363.334 411.177,363.501 416.5,364C 425.231,366.136 428.398,371.636 426,380.5C 425.045,382.949 423.545,384.949 421.5,386.5C 429.208,392.129 430.542,399.129 425.5,407.5C 423.833,408.667 422.167,409.833 420.5,411C 413.239,412.348 405.906,412.848 398.5,412.5C 397.871,395.927 398.538,379.594 400.5,363.5 Z M 406.5,369.5 C 409.874,369.674 413.207,370.174 416.5,371C 420.5,374.667 420.5,378.333 416.5,382C 412.986,383.562 409.319,384.395 405.5,384.5C 405.221,379.405 405.555,374.405 406.5,369.5 Z M 405.5,389.5 C 411.141,388.988 415.974,390.655 420,394.5C 421.378,398.942 420.212,402.442 416.5,405C 412.974,406.337 409.308,406.837 405.5,406.5C 405.5,400.833 405.5,395.167 405.5,389.5 Z"/></g>
<g><path style="opacity:0.803" fill="#000000" d="M 807.5,363.5 C 813.509,363.334 819.509,363.501 825.5,364C 833.754,367.005 836.921,372.838 835,381.5C 833.551,384.616 831.384,387.116 828.5,389C 830.049,390.214 831.215,391.714 832,393.5C 834.019,399.387 835.519,405.387 836.5,411.5C 834.076,411.808 831.743,411.474 829.5,410.5C 827.767,406.34 826.6,402.007 826,397.5C 822.732,393.038 818.232,391.038 812.5,391.5C 812.5,398.167 812.5,404.833 812.5,411.5C 810.167,411.5 807.833,411.5 805.5,411.5C 804.872,395.26 805.539,379.26 807.5,363.5 Z M 815.5,369.5 C 819.824,369.536 823.658,370.869 827,373.5C 828.724,378.731 827.224,382.565 822.5,385C 819.183,385.498 815.85,385.665 812.5,385.5C 812.5,380.5 812.5,375.5 812.5,370.5C 813.791,370.737 814.791,370.404 815.5,369.5 Z"/></g>
<g><path style="opacity:0.819" fill="#000000" d="M 509.5,364.5 C 512.5,364.5 515.5,364.5 518.5,364.5C 523.683,380.05 528.683,395.717 533.5,411.5C 530.833,411.5 528.167,411.5 525.5,411.5C 523.874,406.58 522.541,401.58 521.5,396.5C 516.167,396.5 510.833,396.5 505.5,396.5C 504.751,401.331 503.418,405.998 501.5,410.5C 498.833,411.833 496.167,411.833 493.5,410.5C 498.405,394.961 503.738,379.628 509.5,364.5 Z M 512.5,373.5 C 515.096,379.097 517.429,384.93 519.5,391C 515.5,391.667 511.5,391.667 507.5,391C 510.074,385.443 511.74,379.61 512.5,373.5 Z"/></g>
<g><path style="opacity:0.798" fill="#000000" d="M 600.5,364.5 C 611.5,364.5 622.5,364.5 633.5,364.5C 633.741,367.794 632.908,370.794 631,373.5C 623.34,383.485 616.173,393.818 609.5,404.5C 617.472,405.498 625.472,405.831 633.5,405.5C 633.5,407.5 633.5,409.5 633.5,411.5C 621.833,411.5 610.167,411.5 598.5,411.5C 598.402,407.75 599.569,404.417 602,401.5C 609.536,391.596 616.702,381.43 623.5,371C 615.841,370.5 608.174,370.334 600.5,370.5C 600.5,368.5 600.5,366.5 600.5,364.5 Z"/></g>
<g><path style="opacity:0.819" fill="#000000" d="M 713.5,364.5 C 716.5,364.5 719.5,364.5 722.5,364.5C 727.668,380.007 732.668,395.673 737.5,411.5C 734.833,411.5 732.167,411.5 729.5,411.5C 727.874,406.58 726.541,401.58 725.5,396.5C 720.167,396.5 714.833,396.5 709.5,396.5C 708.751,401.331 707.418,405.998 705.5,410.5C 702.833,411.833 700.167,411.833 697.5,410.5C 703.054,395.169 708.387,379.836 713.5,364.5 Z M 717.5,374.5 C 719.592,379.873 721.592,385.373 723.5,391C 719.5,391.667 715.5,391.667 711.5,391C 713.611,385.498 715.611,379.998 717.5,374.5 Z"/></g>
<g><path style="opacity:0.748" fill="#000000" d="M 489.5,428.5 C 491.167,428.5 492.833,428.5 494.5,428.5C 494.334,435.175 494.5,441.842 495,448.5C 497.167,445.667 499.333,442.833 501.5,440C 503.902,439.186 506.235,439.353 508.5,440.5C 505.833,443.5 503.167,446.5 500.5,449.5C 503.591,454.014 506.925,458.347 510.5,462.5C 508.235,463.647 505.902,463.814 503.5,463C 501.109,459.703 498.609,456.537 496,453.5C 494.595,456.619 494.095,459.952 494.5,463.5C 492.833,463.5 491.167,463.5 489.5,463.5C 489.5,451.833 489.5,440.167 489.5,428.5 Z"/></g>
<g><path style="opacity:0.964" fill="#000000" d="M 613.5,428.5 C 614.833,428.5 616.167,428.5 617.5,428.5C 617.5,440.167 617.5,451.833 617.5,463.5C 616.167,463.5 614.833,463.5 613.5,463.5C 613.5,451.833 613.5,440.167 613.5,428.5 Z"/></g>
<g><path style="opacity:0.713" fill="#000000" d="M 404.5,430.5 C 406.604,430.201 408.604,430.534 410.5,431.5C 414.185,442.224 417.852,452.891 421.5,463.5C 419.473,463.662 417.473,463.495 415.5,463C 414.44,460.263 413.606,457.43 413,454.5C 403.922,450.774 399.422,453.774 399.5,463.5C 397.5,463.5 395.5,463.5 393.5,463.5C 396.407,452.186 400.074,441.186 404.5,430.5 Z M 406.5,437.5 C 408.339,440.529 409.672,443.862 410.5,447.5C 408.167,448.833 405.833,448.833 403.5,447.5C 405.312,444.397 406.312,441.064 406.5,437.5 Z"/></g>
<g><path style="opacity:0.75" fill="#000000" d="M 561.5,430.5 C 582.785,427.602 590.618,436.268 585,456.5C 583.127,458.709 580.96,460.542 578.5,462C 572.577,463.304 566.577,463.804 560.5,463.5C 560.19,452.419 560.523,441.419 561.5,430.5 Z M 565.5,434.5 C 578.842,433.666 584.008,439.666 581,452.5C 577.185,457.877 572.018,459.877 565.5,458.5C 565.5,450.5 565.5,442.5 565.5,434.5 Z"/></g>
<g><path style="opacity:0.669" fill="#000000" d="M 597.5,430.5 C 602.159,430.015 603.492,431.848 601.5,436C 596.728,436.81 595.395,434.977 597.5,430.5 Z"/></g>
<g><path style="opacity:0.747" fill="#000000" d="M 643.5,430.5 C 645.167,430.5 646.833,430.5 648.5,430.5C 648.334,435.179 648.501,439.845 649,444.5C 652.5,440 656,435.5 659.5,431C 661.902,430.186 664.235,430.353 666.5,431.5C 662.596,435.648 658.929,439.981 655.5,444.5C 659.5,450.5 663.5,456.5 667.5,462.5C 665.579,463.641 663.579,463.808 661.5,463C 657.878,458.255 654.378,453.422 651,448.5C 648.688,453.154 647.854,458.154 648.5,463.5C 646.833,463.5 645.167,463.5 643.5,463.5C 643.5,452.5 643.5,441.5 643.5,430.5 Z"/></g>
<g><path style="opacity:0.737" fill="#000000" d="M 718.5,430.5 C 724.68,429.829 730.514,430.829 736,433.5C 738.222,437.836 737.722,441.836 734.5,445.5C 739.795,451.037 739.795,456.537 734.5,462C 728.912,463.289 723.245,463.789 717.5,463.5C 717.19,452.419 717.523,441.419 718.5,430.5 Z M 722.5,434.5 C 727.001,433.621 730.334,435.121 732.5,439C 730.218,442.643 726.884,444.476 722.5,444.5C 722.5,441.167 722.5,437.833 722.5,434.5 Z M 722.5,448.5 C 725.93,448.107 729.096,448.773 732,450.5C 732.758,452.769 732.591,454.936 731.5,457C 728.649,458.289 725.649,458.789 722.5,458.5C 722.5,455.167 722.5,451.833 722.5,448.5 Z"/></g>
<g><path style="opacity:0.999" fill="#070708" d="M 115.5,436.5 C 138.865,437.878 149.032,450.212 146,473.5C 138.639,490.757 125.806,496.59 107.5,491C 90.6769,480.511 86.8436,466.345 96,448.5C 101.177,442.119 107.677,438.119 115.5,436.5 Z"/></g>
<g><path style="opacity:0.998" fill="#070808" d="M 243.5,436.5 C 265.648,437.166 276.148,448.499 275,470.5C 268.556,489.808 255.389,496.642 235.5,491C 219.081,480.899 215.081,467.066 223.5,449.5C 228.637,442.675 235.304,438.342 243.5,436.5 Z"/></g>
<g><path style="opacity:0.703" fill="#000000" d="M 433.5,438.5 C 436.518,438.335 439.518,438.502 442.5,439C 444,439.833 445.167,441 446,442.5C 447.425,449.385 447.925,456.385 447.5,463.5C 443.655,462.322 439.822,462.322 436,463.5C 428.962,463.124 426.628,459.457 429,452.5C 432.64,448.787 437.14,446.953 442.5,447C 441.833,446 441.167,445 440.5,444C 437.438,443.259 434.438,443.425 431.5,444.5C 428.635,441.357 429.302,439.357 433.5,438.5 Z M 437.5,451.5 C 439.167,451.5 440.833,451.5 442.5,451.5C 442.867,457.31 440.367,459.643 435,458.5C 433.916,455.341 434.75,453.008 437.5,451.5 Z"/></g>
<g><path style="opacity:0.74" fill="#000000" d="M 466.5,438.5 C 479.034,439.1 483.367,445.6 479.5,458C 478.165,459.674 476.831,461.341 475.5,463C 471.577,463.793 467.744,463.626 464,462.5C 463.502,465.817 463.335,469.15 463.5,472.5C 461.833,472.5 460.167,472.5 458.5,472.5C 458.74,461.469 458.407,450.469 457.5,439.5C 459.591,439.318 461.591,439.652 463.5,440.5C 464.739,440.058 465.739,439.391 466.5,438.5 Z M 466.5,443.5 C 472.284,442.948 475.284,445.615 475.5,451.5C 474.763,458.023 471.43,460.189 465.5,458C 462.657,452.922 462.99,448.088 466.5,443.5 Z"/></g>
<g><path style="opacity:0.701" fill="#000000" d="M 520.5,438.5 C 523.518,438.335 526.518,438.502 529.5,439C 531.161,439.995 532.495,441.328 533.5,443C 534.445,449.788 534.778,456.621 534.5,463.5C 532.549,463.773 531.049,463.107 530,461.5C 525.467,464.136 520.967,464.136 516.5,461.5C 514.469,456.525 515.469,452.359 519.5,449C 522.789,448.118 526.123,447.452 529.5,447C 528.833,446 528.167,445 527.5,444C 524.428,443.544 521.428,443.544 518.5,444C 515.857,441.11 516.523,439.277 520.5,438.5 Z M 524.5,451.5 C 526.167,451.5 527.833,451.5 529.5,451.5C 529.867,457.31 527.367,459.643 522,458.5C 521.833,457.667 521.667,456.833 521.5,456C 522.008,454.107 523.008,452.607 524.5,451.5 Z"/></g>
<g><path style="opacity:0.703" fill="#000000" d="M 678.5,438.5 C 681.518,438.335 684.518,438.502 687.5,439C 689,439.833 690.167,441 691,442.5C 692.425,449.385 692.925,456.385 692.5,463.5C 688.655,462.322 684.822,462.322 681,463.5C 673.962,463.124 671.628,459.457 674,452.5C 677.64,448.787 682.14,446.953 687.5,447C 686.833,446 686.167,445 685.5,444C 682.438,443.259 679.438,443.425 676.5,444.5C 673.635,441.357 674.302,439.357 678.5,438.5 Z M 682.5,451.5 C 684.167,451.5 685.833,451.5 687.5,451.5C 687.867,457.31 685.367,459.643 680,458.5C 678.916,455.341 679.75,453.008 682.5,451.5 Z"/></g>
<g><path style="opacity:0.7" fill="#000000" d="M 751.5,438.5 C 754.518,438.335 757.518,438.502 760.5,439C 762,439.833 763.167,441 764,442.5C 765.425,449.385 765.925,456.385 765.5,463.5C 761.655,462.322 757.822,462.322 754,463.5C 746.962,463.124 744.628,459.457 747,452.5C 750.64,448.787 755.14,446.953 760.5,447C 759.833,446 759.167,445 758.5,444C 755.438,443.259 752.438,443.425 749.5,444.5C 746.635,441.357 747.302,439.357 751.5,438.5 Z M 755.5,451.5 C 757.167,451.5 758.833,451.5 760.5,451.5C 760.867,457.31 758.367,459.643 753,458.5C 751.916,455.341 752.75,453.008 755.5,451.5 Z"/></g>
<g><path style="opacity:0.742" fill="#000000" d="M 804.5,438.5 C 809.535,437.502 813.702,438.835 817,442.5C 817.325,449.524 817.825,456.524 818.5,463.5C 814.655,462.322 810.822,462.322 807,463.5C 804.53,463.66 802.364,462.993 800.5,461.5C 798.415,451.4 802.748,446.567 813.5,447C 812.833,446 812.167,445 811.5,444C 808.438,443.259 805.438,443.425 802.5,444.5C 799.635,441.357 800.302,439.357 804.5,438.5 Z M 808.5,451.5 C 810.167,451.5 811.833,451.5 813.5,451.5C 813.882,455.747 812.049,458.414 808,459.5C 806.118,459.312 804.952,458.312 804.5,456.5C 805.127,454.213 806.46,452.546 808.5,451.5 Z"/></g>
<g><path style="opacity:0.82" fill="#000000" d="M 836.5,438.5 C 838.167,438.5 839.833,438.5 841.5,438.5C 841.5,440.167 841.5,441.833 841.5,443.5C 837.403,443.469 834.903,445.469 834,449.5C 833.501,454.155 833.334,458.821 833.5,463.5C 832.167,463.5 830.833,463.5 829.5,463.5C 829.736,455.458 829.403,447.458 828.5,439.5C 830.766,439.141 832.599,439.808 834,441.5C 834.698,440.309 835.531,439.309 836.5,438.5 Z"/></g>
<g><path style="opacity:0.958" fill="#000000" d="M 597.5,439.5 C 598.833,439.5 600.167,439.5 601.5,439.5C 601.5,447.5 601.5,455.5 601.5,463.5C 600.167,463.5 598.833,463.5 597.5,463.5C 597.5,455.5 597.5,447.5 597.5,439.5 Z"/></g>
<g><path style="opacity:0.721" fill="#000000" d="M 774.5,439.5 C 780.5,439.5 786.5,439.5 792.5,439.5C 792.66,441.199 792.494,442.866 792,444.5C 788.5,449 785,453.5 781.5,458C 785.152,458.499 788.818,458.665 792.5,458.5C 792.5,460.167 792.5,461.833 792.5,463.5C 786.167,463.5 779.833,463.5 773.5,463.5C 773.34,461.801 773.506,460.134 774,458.5C 778.194,453.94 782.028,449.106 785.5,444C 781.848,443.501 778.182,443.335 774.5,443.5C 774.5,442.167 774.5,440.833 774.5,439.5 Z"/></g>
<g><path style="opacity:1" fill="#f1f1f1" d="M 116.5,457.5 C 123.657,457.155 126.824,460.488 126,467.5C 124.053,471.557 120.886,473.057 116.5,472C 112.788,469.487 111.622,465.987 113,461.5C 114.376,460.295 115.542,458.962 116.5,457.5 Z"/></g>
<g><path style="opacity:1" fill="#f1f1f1" d="M 244.5,457.5 C 251.706,457.202 254.873,460.535 254,467.5C 250.038,473.631 245.705,473.964 241,468.5C 239.663,463.916 240.829,460.249 244.5,457.5 Z"/></g>
</svg>
