<?xml version="1.0" encoding="UTF-8"?>
<!DOCTYPE svg PUBLIC "-//W3C//DTD SVG 1.1//EN" "http://www.w3.org/Graphics/SVG/1.1/DTD/svg11.dtd">
<svg xmlns="http://www.w3.org/2000/svg" version="1.1" width="1271px" height="408px" style="shape-rendering:geometricPrecision; text-rendering:geometricPrecision; image-rendering:optimizeQuality; fill-rule:evenodd; clip-rule:evenodd" xmlns:xlink="http://www.w3.org/1999/xlink">
<g><path style="opacity:0.917" fill="#020100" d="M 352.5,98.5 C 351.506,108.987 351.172,119.654 351.5,130.5C 346.5,129.167 341.5,129.167 336.5,130.5C 336.828,119.654 336.494,108.987 335.5,98.5C 336.517,60.029 318.851,34.529 282.5,22C 240.966,15.2839 212.133,31.1173 196,69.5C 193.055,78.9426 191.888,88.6093 192.5,98.5C 191.833,109.167 191.167,119.833 190.5,130.5C 185.833,129.167 181.167,129.167 176.5,130.5C 176.5,119.833 176.5,109.167 176.5,98.5C 175.738,52.1416 197.071,21.3083 240.5,6C 283.028,-3.2831 316.194,9.88356 340,45.5C 349.426,61.8425 353.593,79.5092 352.5,98.5 Z M 335.5,98.5 C 287.833,98.5 240.167,98.5 192.5,98.5C 191.888,88.6093 193.055,78.9426 196,69.5C 212.133,31.1173 240.966,15.2839 282.5,22C 318.851,34.529 336.517,60.029 335.5,98.5 Z"/></g>
<g><path style="opacity:1" fill="#faaf3b" d="M 176.5,98.5 C 176.5,109.167 176.5,119.833 176.5,130.5C 168.915,138.018 168.581,145.851 175.5,154C 191.06,159.44 198.227,153.94 197,137.5C 195.668,135.34 194.168,133.34 192.5,131.5C 192.5,120.5 192.5,109.5 192.5,98.5C 240.167,98.5 287.833,98.5 335.5,98.5C 336.494,108.987 336.828,119.654 336.5,130.5C 328.243,138.969 328.577,147.136 337.5,155C 347.7,158.982 354.533,155.816 358,145.5C 359.016,139.03 356.85,134.03 351.5,130.5C 351.172,119.654 351.506,108.987 352.5,98.5C 363.838,98.3335 375.172,98.5001 386.5,99C 392.044,100.714 395.711,104.214 397.5,109.5C 397.98,115.386 398.98,121.052 400.5,126.5C 400.549,133.849 400.882,141.183 401.5,148.5C 370.468,183.019 331.801,203.353 285.5,209.5C 285.5,202.833 285.5,196.167 285.5,189.5C 280.167,189.5 274.833,189.5 269.5,189.5C 269.5,196.5 269.5,203.5 269.5,210.5C 264.167,210.5 258.833,210.5 253.5,210.5C 253.5,203.5 253.5,196.5 253.5,189.5C 248.5,189.5 243.5,189.5 238.5,189.5C 238.5,196.167 238.5,202.833 238.5,209.5C 216.28,206.695 195.28,200.028 175.5,189.5C 174.893,189.624 174.56,189.957 174.5,190.5C 172.821,190.715 171.821,190.048 171.5,188.5C 172.738,188.19 172.738,187.69 171.5,187C 168.589,185.239 165.589,183.739 162.5,182.5C 162.027,181.094 161.027,180.427 159.5,180.5C 157.704,178.1 155.37,176.433 152.5,175.5C 140.438,167.607 130.104,157.774 121.5,146C 120.552,145.517 119.552,145.351 118.5,145.5C 120.431,134.238 121.931,122.905 123,111.5C 125.141,105.359 129.307,101.193 135.5,99C 149.163,98.5001 162.829,98.3334 176.5,98.5 Z"/></g>
<g><path style="opacity:1" fill="#8d6323" d="M 192.5,98.5 C 192.5,109.5 192.5,120.5 192.5,131.5C 191.508,131.672 190.842,131.338 190.5,130.5C 191.167,119.833 191.833,109.167 192.5,98.5 Z"/></g>
<g><path style="opacity:0.948" fill="#f38f00" d="M 638.5,101.5 C 658.003,97.416 674.837,102.083 689,115.5C 705.537,139.895 705.537,164.228 689,188.5C 672.298,204.826 652.798,208.993 630.5,201C 607.012,188.173 597.845,168.34 603,141.5C 606.813,120.771 618.647,107.438 638.5,101.5 Z M 646.5,121.5 C 663.179,120.258 672.679,127.924 675,144.5C 677.252,157.383 674.418,168.883 666.5,179C 646.666,188.499 633.832,182.666 628,161.5C 625.224,148.024 628.391,136.357 637.5,126.5C 640.261,124.26 643.261,122.593 646.5,121.5 Z"/></g>
<g><path style="opacity:0.931" fill="#f38f00" d="M 550.5,102.5 C 558.5,102.5 566.5,102.5 574.5,102.5C 574.667,125.502 574.5,148.502 574,171.5C 571.278,192.944 559.111,203.944 537.5,204.5C 532.316,204.951 527.482,203.951 523,201.5C 522.169,194.144 522.335,186.811 523.5,179.5C 539.552,188.109 548.385,183.442 550,165.5C 550.5,144.503 550.667,123.503 550.5,102.5 Z"/></g>
<g><path style="opacity:0.954" fill="#f38f00" d="M 722.5,102.5 C 748.5,102.5 774.5,102.5 800.5,102.5C 800.666,107.179 800.499,111.845 800,116.5C 783.941,138.802 767.774,160.968 751.5,183C 767.83,183.5 784.163,183.667 800.5,183.5C 800.5,189.833 800.5,196.167 800.5,202.5C 773.167,202.5 745.833,202.5 718.5,202.5C 718.334,197.821 718.501,193.155 719,188.5C 735.096,166.066 751.596,143.899 768.5,122C 753.17,121.5 737.837,121.333 722.5,121.5C 722.5,115.167 722.5,108.833 722.5,102.5 Z"/></g>
<g><path style="opacity:0.954" fill="#f38f00" d="M 822.5,102.5 C 848.5,102.5 874.5,102.5 900.5,102.5C 900.666,107.179 900.499,111.845 900,116.5C 883.855,138.948 867.355,161.115 850.5,183C 867.163,183.5 883.83,183.667 900.5,183.5C 900.5,189.833 900.5,196.167 900.5,202.5C 873.167,202.5 845.833,202.5 818.5,202.5C 818.242,197.283 818.575,192.116 819.5,187C 835.809,165.352 852.143,143.685 868.5,122C 853.17,121.5 837.837,121.333 822.5,121.5C 822.5,115.167 822.5,108.833 822.5,102.5 Z"/></g>
<g><path style="opacity:0.965" fill="#f38f00" d="M 927.5,102.5 C 943.503,102.333 959.503,102.5 975.5,103C 997.091,107.022 1003.92,119.189 996,139.5C 992.749,143.422 988.916,146.588 984.5,149C 1000.99,154.808 1006.82,166.308 1002,183.5C 998.559,192.15 992.392,197.983 983.5,201C 964.875,202.419 946.208,202.919 927.5,202.5C 927.5,169.167 927.5,135.833 927.5,102.5 Z M 951.5,120.5 C 957.262,120.149 962.928,120.649 968.5,122C 975.315,126.314 976.315,131.814 971.5,138.5C 970.092,139.243 968.759,140.077 967.5,141C 962.292,142.397 956.959,142.897 951.5,142.5C 951.5,135.167 951.5,127.833 951.5,120.5 Z M 951.5,160.5 C 958.257,160.123 964.924,160.623 971.5,162C 979.923,167.923 980.59,174.59 973.5,182C 966.447,184.786 959.113,185.953 951.5,185.5C 951.5,177.167 951.5,168.833 951.5,160.5 Z"/></g>
<g><path style="opacity:0.951" fill="#f38f00" d="M 1018.5,102.5 C 1027.52,102.168 1036.52,102.502 1045.5,103.5C 1051.54,116.925 1057.04,130.592 1062,144.5C 1067.8,130.402 1073.97,116.569 1080.5,103C 1088.85,102.168 1097.19,102.335 1105.5,103.5C 1094.34,124.111 1083.84,145.111 1074,166.5C 1073.5,178.495 1073.33,190.495 1073.5,202.5C 1065.5,202.5 1057.5,202.5 1049.5,202.5C 1049.67,190.495 1049.5,178.495 1049,166.5C 1038.81,146.922 1028.81,127.255 1019,107.5C 1018.51,105.866 1018.34,104.199 1018.5,102.5 Z"/></g>
<g><path style="opacity:0.637" fill="#b4894f" d="M 397.5,109.5 C 398.793,110.842 399.626,112.509 400,114.5C 400.499,118.486 400.666,122.486 400.5,126.5C 398.98,121.052 397.98,115.386 397.5,109.5 Z"/></g>
<g><path style="opacity:1" fill="#fefcfa" d="M 190.5,130.5 C 190.842,131.338 191.508,131.672 192.5,131.5C 194.168,133.34 195.668,135.34 197,137.5C 198.227,153.94 191.06,159.44 175.5,154C 168.581,145.851 168.915,138.018 176.5,130.5C 181.167,129.167 185.833,129.167 190.5,130.5 Z"/></g>
<g><path style="opacity:1" fill="#fefcf9" d="M 351.5,130.5 C 356.85,134.03 359.016,139.03 358,145.5C 354.533,155.816 347.7,158.982 337.5,155C 328.577,147.136 328.243,138.969 336.5,130.5C 341.5,129.167 346.5,129.167 351.5,130.5 Z"/></g>
<g><path style="opacity:0.935" fill="#bc8e4d" d="M 400.5,126.5 C 402.135,133.276 403.135,140.276 403.5,147.5C 402.833,147.833 402.167,148.167 401.5,148.5C 400.882,141.183 400.549,133.849 400.5,126.5 Z"/></g>
<g><path style="opacity:0.989" fill="#f38f01" d="M 118.5,145.5 C 119.552,145.351 120.552,145.517 121.5,146C 130.104,157.774 140.438,167.607 152.5,175.5C 154.296,177.9 156.63,179.567 159.5,180.5C 159.973,181.906 160.973,182.573 162.5,182.5C 164.946,185.231 167.946,187.231 171.5,188.5C 171.821,190.048 172.821,190.715 174.5,190.5C 193.823,201.496 214.49,208.496 236.5,211.5C 237.797,218.431 238.464,225.598 238.5,233C 241.424,264.735 227.09,280.402 195.5,280C 182.215,275.215 173.549,266.048 169.5,252.5C 169.5,250.167 169.5,247.833 169.5,245.5C 164.167,245.5 158.833,245.5 153.5,245.5C 153.198,248.059 153.532,250.393 154.5,252.5C 160.006,279.507 176.506,293.84 204,295.5C 231.003,293.328 247.169,278.995 252.5,252.5C 253.495,240.011 253.829,227.344 253.5,214.5C 259.167,214.5 264.833,214.5 270.5,214.5C 270.333,227.504 270.5,240.504 271,253.5C 278.519,283.352 297.686,297.185 328.5,295C 355.854,288.111 369.02,270.611 368,242.5C 364.463,222.631 352.629,211.131 332.5,208C 327.177,207.501 321.844,207.334 316.5,207.5C 350.096,196.905 379.096,178.905 403.5,153.5C 410.892,214.755 418.059,276.088 425,337.5C 425.667,344.833 425.667,352.167 425,359.5C 422.5,364.667 418.667,368.5 413.5,371C 404.173,371.5 394.839,371.666 385.5,371.5C 385.395,352.127 376.728,337.96 359.5,329C 332.593,320.497 312.76,328.663 300,353.5C 298.295,359.4 297.128,365.4 296.5,371.5C 271.833,371.5 247.167,371.5 222.5,371.5C 221.532,347.69 209.532,332.524 186.5,326C 159.559,323.949 142.059,335.783 134,361.5C 133.502,364.817 133.335,368.15 133.5,371.5C 125.16,371.666 116.827,371.5 108.5,371C 97.4235,364.652 93.5902,355.152 97,342.5C 104.829,276.893 111.995,211.227 118.5,145.5 Z"/></g>
<g><path style="opacity:1" fill="#2c438d" d="M 403.5,147.5 C 403.5,149.5 403.5,151.5 403.5,153.5C 379.096,178.905 350.096,196.905 316.5,207.5C 314.784,207.629 313.117,207.962 311.5,208.5C 302.98,210.737 294.313,212.07 285.5,212.5C 285.5,211.5 285.5,210.5 285.5,209.5C 331.801,203.353 370.468,183.019 401.5,148.5C 402.167,148.167 402.833,147.833 403.5,147.5 Z"/></g>
<g><path style="opacity:1" fill="#8b725a" d="M 152.5,175.5 C 155.37,176.433 157.704,178.1 159.5,180.5C 156.63,179.567 154.296,177.9 152.5,175.5 Z"/></g>
<g><path style="opacity:1" fill="#7a6b63" d="M 159.5,180.5 C 161.027,180.427 162.027,181.094 162.5,182.5C 160.973,182.573 159.973,181.906 159.5,180.5 Z"/></g>
<g><path style="opacity:1" fill="#6a626a" d="M 162.5,182.5 C 165.589,183.739 168.589,185.239 171.5,187C 172.738,187.69 172.738,188.19 171.5,188.5C 167.946,187.231 164.946,185.231 162.5,182.5 Z"/></g>
<g><path style="opacity:1" fill="#fefdfa" d="M 253.5,210.5 C 253.5,210.833 253.5,211.167 253.5,211.5C 253.5,212.167 253.5,212.833 253.5,213.5C 252.505,226.323 252.171,239.323 252.5,252.5C 247.169,278.995 231.003,293.328 204,295.5C 176.506,293.84 160.006,279.507 154.5,252.5C 154.5,250.5 154.5,248.5 154.5,246.5C 159.167,246.5 163.833,246.5 168.5,246.5C 168.205,248.735 168.539,250.735 169.5,252.5C 173.549,266.048 182.215,275.215 195.5,280C 227.09,280.402 241.424,264.735 238.5,233C 238.464,225.598 237.797,218.431 236.5,211.5C 237.833,211.5 238.5,210.833 238.5,209.5C 238.5,202.833 238.5,196.167 238.5,189.5C 243.5,189.5 248.5,189.5 253.5,189.5C 253.5,196.5 253.5,203.5 253.5,210.5 Z"/></g>
<g><path style="opacity:1" fill="#fefcfa" d="M 285.5,209.5 C 285.5,210.5 285.5,211.5 285.5,212.5C 285.106,227.211 285.606,241.878 287,256.5C 294.223,274.4 307.389,282.233 326.5,280C 347.646,273.866 356.146,260.033 352,238.5C 344.583,225.503 333.417,220.336 318.5,223C 313.981,224.113 309.648,225.447 305.5,227C 303.041,223.25 300.708,219.417 298.5,215.5C 302.557,212.597 306.891,210.264 311.5,208.5C 313.117,207.962 314.784,207.629 316.5,207.5C 321.844,207.334 327.177,207.501 332.5,208C 352.629,211.131 364.463,222.631 368,242.5C 369.02,270.611 355.854,288.111 328.5,295C 297.686,297.185 278.519,283.352 271,253.5C 270.5,240.504 270.333,227.504 270.5,214.5C 270.5,214.167 270.5,213.833 270.5,213.5C 270.5,212.833 270.5,212.167 270.5,211.5C 270.5,204.5 270.5,197.5 270.5,190.5C 275.167,190.5 279.833,190.5 284.5,190.5C 284.177,197.022 284.51,203.355 285.5,209.5 Z"/></g>
<g><path style="opacity:1" fill="#e9cb9e" d="M 285.5,209.5 C 284.51,203.355 284.177,197.022 284.5,190.5C 279.833,190.5 275.167,190.5 270.5,190.5C 270.5,197.5 270.5,204.5 270.5,211.5C 264.833,211.5 259.167,211.5 253.5,211.5C 253.5,211.167 253.5,210.833 253.5,210.5C 258.833,210.5 264.167,210.5 269.5,210.5C 269.5,203.5 269.5,196.5 269.5,189.5C 274.833,189.5 280.167,189.5 285.5,189.5C 285.5,196.167 285.5,202.833 285.5,209.5 Z"/></g>
<g><path style="opacity:1" fill="#3c4986" d="M 174.5,190.5 C 174.56,189.957 174.893,189.624 175.5,189.5C 195.28,200.028 216.28,206.695 238.5,209.5C 238.5,210.833 237.833,211.5 236.5,211.5C 214.49,208.496 193.823,201.496 174.5,190.5 Z"/></g>
<g><path style="opacity:1" fill="#1a4198" d="M 253.5,211.5 C 259.167,211.5 264.833,211.5 270.5,211.5C 270.5,212.167 270.5,212.833 270.5,213.5C 264.833,213.5 259.167,213.5 253.5,213.5C 253.5,212.833 253.5,212.167 253.5,211.5 Z"/></g>
<g><path style="opacity:1" fill="#f38f04" d="M 311.5,208.5 C 306.891,210.264 302.557,212.597 298.5,215.5C 300.708,219.417 303.041,223.25 305.5,227C 309.648,225.447 313.981,224.113 318.5,223C 333.417,220.336 344.583,225.503 352,238.5C 356.146,260.033 347.646,273.866 326.5,280C 307.389,282.233 294.223,274.4 287,256.5C 285.606,241.878 285.106,227.211 285.5,212.5C 294.313,212.07 302.98,210.737 311.5,208.5 Z"/></g>
<g><path style="opacity:1" fill="#ddc3a3" d="M 253.5,213.5 C 259.167,213.5 264.833,213.5 270.5,213.5C 270.5,213.833 270.5,214.167 270.5,214.5C 264.833,214.5 259.167,214.5 253.5,214.5C 253.829,227.344 253.495,240.011 252.5,252.5C 252.171,239.323 252.505,226.323 253.5,213.5 Z"/></g>
<g><path style="opacity:0.866" fill="#000000" d="M 534.5,241.5 C 543.173,241.334 551.84,241.5 560.5,242C 569.781,247.176 572.281,254.676 568,264.5C 566.315,266.017 564.815,267.684 563.5,269.5C 566.723,271.53 569.223,274.196 571,277.5C 571.667,282.5 571.667,287.5 571,292.5C 569.562,293.9 568.729,295.567 568.5,297.5C 564.816,299.598 560.816,301.098 556.5,302C 549.174,302.5 541.841,302.666 534.5,302.5C 534.5,282.167 534.5,261.833 534.5,241.5 Z M 544.5,247.5 C 550.77,246.864 555.937,248.864 560,253.5C 561.568,258.579 560.068,262.413 555.5,265C 551.3,266.367 546.967,266.867 542.5,266.5C 541.94,259.879 542.607,253.545 544.5,247.5 Z M 542.5,273.5 C 549.174,273 555.174,274.667 560.5,278.5C 564.05,284.944 562.717,290.111 556.5,294C 552.203,295.092 547.869,295.425 543.5,295C 542.52,287.921 542.187,280.755 542.5,273.5 Z"/></g>
<g><path style="opacity:0.825" fill="#000000" d="M 675.5,241.5 C 679.167,241.5 682.833,241.5 686.5,241.5C 692.866,261.24 699.533,280.907 706.5,300.5C 702.955,301.791 699.455,301.791 696,300.5C 694.176,294.847 692.343,289.181 690.5,283.5C 683.866,282.503 677.2,282.17 670.5,282.5C 668.982,288.584 667.149,294.584 665,300.5C 661.943,301.451 658.777,301.784 655.5,301.5C 661.613,281.283 668.28,261.283 675.5,241.5 Z M 679.5,253.5 C 680.497,253.47 681.164,253.97 681.5,255C 683.262,261.958 685.596,268.625 688.5,275C 683.511,275.499 678.511,275.666 673.5,275.5C 675.815,268.239 677.815,260.906 679.5,253.5 Z"/></g>
<g><path style="opacity:0.824" fill="#000000" d="M 791.5,241.5 C 805.5,241.5 819.5,241.5 833.5,241.5C 833.649,244.607 833.149,247.607 832,250.5C 821.718,264.888 811.552,279.388 801.5,294C 812.161,294.5 822.828,294.667 833.5,294.5C 833.5,296.833 833.5,299.167 833.5,301.5C 818.833,301.5 804.167,301.5 789.5,301.5C 789.312,297.909 790.145,294.576 792,291.5C 801.899,277.935 811.399,264.102 820.5,250C 810.839,249.5 801.172,249.334 791.5,249.5C 791.5,246.833 791.5,244.167 791.5,241.5 Z"/></g>
<g><path style="opacity:0.825" fill="#000000" d="M 935.5,241.5 C 939.167,241.5 942.833,241.5 946.5,241.5C 953.317,261.093 959.983,280.759 966.5,300.5C 963.232,301.487 959.898,301.82 956.5,301.5C 954.814,295.435 952.814,289.435 950.5,283.5C 944.167,282.167 937.833,282.167 931.5,283.5C 929.289,289.444 927.289,295.444 925.5,301.5C 922.167,301.5 918.833,301.5 915.5,301.5C 922.176,281.446 928.843,261.446 935.5,241.5 Z M 940.5,253.5 C 942.862,260.75 945.529,267.917 948.5,275C 943.5,275.667 938.5,275.667 933.5,275C 936.146,267.942 938.479,260.775 940.5,253.5 Z"/></g>
<g><path style="opacity:0.872" fill="#000000" d="M 1053.5,241.5 C 1062.51,241.334 1071.51,241.5 1080.5,242C 1090.46,247.396 1093.29,255.563 1089,266.5C 1086.83,268.667 1084.67,270.833 1082.5,273C 1085.42,275.077 1087.26,277.91 1088,281.5C 1089.2,288.25 1090.7,294.916 1092.5,301.5C 1089.43,301.817 1086.43,301.484 1083.5,300.5C 1081.64,293.155 1079.31,285.988 1076.5,279C 1071.84,276.418 1066.84,275.251 1061.5,275.5C 1061.5,284.167 1061.5,292.833 1061.5,301.5C 1058.83,301.5 1056.17,301.5 1053.5,301.5C 1053.5,281.5 1053.5,261.5 1053.5,241.5 Z M 1065.5,247.5 C 1072.02,247.054 1077.19,249.388 1081,254.5C 1082.64,260.957 1080.47,265.457 1074.5,268C 1070.27,269.29 1065.94,269.79 1061.5,269.5C 1061.5,262.5 1061.5,255.5 1061.5,248.5C 1063.1,248.768 1064.43,248.434 1065.5,247.5 Z"/></g>
<g><path style="opacity:1" fill="#fcd8a7" d="M 169.5,252.5 C 168.539,250.735 168.205,248.735 168.5,246.5C 163.833,246.5 159.167,246.5 154.5,246.5C 154.5,248.5 154.5,250.5 154.5,252.5C 153.532,250.393 153.198,248.059 153.5,245.5C 158.833,245.5 164.167,245.5 169.5,245.5C 169.5,247.833 169.5,250.167 169.5,252.5 Z"/></g>
<g><path style="opacity:0.789" fill="#000000" d="M 650.5,323.5 C 652.5,323.5 654.5,323.5 656.5,323.5C 656.334,331.84 656.5,340.173 657,348.5C 659.833,345 662.667,341.5 665.5,338C 668.5,337.333 671.5,337.333 674.5,338C 670.652,341.586 667.319,345.586 664.5,350C 668.365,355.548 672.365,361.048 676.5,366.5C 673.5,367.833 670.5,367.833 667.5,366.5C 664.874,362.37 662.04,358.37 659,354.5C 658.333,355.167 657.667,355.833 657,356.5C 656.501,360.152 656.335,363.818 656.5,367.5C 654.5,367.5 652.5,367.5 650.5,367.5C 650.5,352.833 650.5,338.167 650.5,323.5 Z"/></g>
<g><path style="opacity:0.855" fill="#000000" d="M 807.5,323.5 C 809.5,323.5 811.5,323.5 813.5,323.5C 813.5,338.167 813.5,352.833 813.5,367.5C 811.5,367.5 809.5,367.5 807.5,367.5C 807.5,352.833 807.5,338.167 807.5,323.5 Z"/></g>
<g><path style="opacity:0.764" fill="#000000" d="M 541.5,325.5 C 544.167,325.5 546.833,325.5 549.5,325.5C 553.108,338.068 557.275,350.401 562,362.5C 562.494,364.134 562.66,365.801 562.5,367.5C 560.167,367.5 557.833,367.5 555.5,367.5C 554.204,363.24 553.204,358.906 552.5,354.5C 547.786,354.173 543.12,354.507 538.5,355.5C 537.451,359.265 536.118,362.932 534.5,366.5C 532.257,367.474 529.924,367.808 527.5,367.5C 532.048,353.374 536.715,339.374 541.5,325.5 Z M 544.5,334.5 C 545.117,334.611 545.617,334.944 546,335.5C 547.078,340.225 548.244,344.891 549.5,349.5C 546.5,349.5 543.5,349.5 540.5,349.5C 542.122,344.586 543.455,339.586 544.5,334.5 Z"/></g>
<g><path style="opacity:0.781" fill="#000000" d="M 742.5,325.5 C 748.509,325.334 754.509,325.501 760.5,326C 770.42,328.926 775.42,335.593 775.5,346C 775.064,357.92 769.064,364.92 757.5,367C 751.843,367.499 746.176,367.666 740.5,367.5C 739.878,353.255 740.545,339.255 742.5,325.5 Z M 746.5,331.5 C 764.609,330.047 771.109,338.047 766,355.5C 760.754,361.084 754.254,363.417 746.5,362.5C 746.5,352.167 746.5,341.833 746.5,331.5 Z"/></g>
<g><path style="opacity:0.631" fill="#000000" d="M 787.5,325.5 C 794.004,325.138 795.671,327.638 792.5,333C 786.785,333.401 785.119,330.901 787.5,325.5 Z"/></g>
<g><path style="opacity:0.779" fill="#000000" d="M 847.5,325.5 C 849.5,325.5 851.5,325.5 853.5,325.5C 853.334,331.176 853.501,336.843 854,342.5C 858.878,337.291 863.378,331.791 867.5,326C 870.146,325.503 872.813,325.336 875.5,325.5C 871.077,331.479 866.744,337.645 862.5,344C 867.26,351.452 871.926,358.952 876.5,366.5C 874.235,367.647 871.902,367.814 869.5,367C 865.629,362.093 862.129,356.926 859,351.5C 857.561,349.986 856.061,349.653 854.5,350.5C 853.505,356.128 853.171,361.794 853.5,367.5C 851.5,367.5 849.5,367.5 847.5,367.5C 847.5,353.5 847.5,339.5 847.5,325.5 Z"/></g>
<g><path style="opacity:0.778" fill="#000000" d="M 941.5,325.5 C 946.844,325.334 952.177,325.501 957.5,326C 965.193,328.426 967.693,333.592 965,341.5C 963.786,343.049 962.286,344.215 960.5,345C 967.049,347.779 969.216,352.612 967,359.5C 965.613,364.218 962.446,366.718 957.5,367C 951.843,367.499 946.176,367.666 940.5,367.5C 940.185,353.421 940.518,339.421 941.5,325.5 Z M 946.5,331.5 C 949.85,331.335 953.183,331.502 956.5,332C 960.729,335.843 960.395,339.177 955.5,342C 952.607,343.149 949.607,343.649 946.5,343.5C 946.5,339.5 946.5,335.5 946.5,331.5 Z M 946.5,348.5 C 951.079,348.153 955.412,348.82 959.5,350.5C 961.609,355.576 960.276,359.409 955.5,362C 952.518,362.498 949.518,362.665 946.5,362.5C 946.5,357.833 946.5,353.167 946.5,348.5 Z"/></g>
<g><path style="opacity:0.999" fill="#070808" d="M 169.5,334.5 C 200.102,332.602 214.602,346.936 213,377.5C 209.174,391.992 200.008,401.159 185.5,405C 165.713,407.364 151.879,399.53 144,381.5C 139.095,358.28 147.595,342.614 169.5,334.5 Z"/></g>
<g><path style="opacity:0.999" fill="#070708" d="M 332.5,334.5 C 363.134,332.634 377.634,346.968 376,377.5C 369.857,398.003 356.024,407.17 334.5,405C 316.265,400.257 306.598,388.424 305.5,369.5C 307.084,351.954 316.084,340.287 332.5,334.5 Z"/></g>
<g><path style="opacity:0.733" fill="#000000" d="M 578.5,336.5 C 583.267,336.191 587.934,336.691 592.5,338C 593.494,339.329 594.494,340.662 595.5,342C 596.457,350.458 596.79,358.958 596.5,367.5C 593.921,367.917 591.754,367.25 590,365.5C 583.647,370.017 577.981,369.35 573,363.5C 571.195,355.275 574.362,350.108 582.5,348C 585.167,347.667 587.833,347.333 590.5,347C 589.745,344.867 588.412,343.2 586.5,342C 582.69,341.585 579.023,341.918 575.5,343C 574.594,341.301 574.261,339.467 574.5,337.5C 576.099,337.768 577.432,337.434 578.5,336.5 Z M 587.5,352.5 C 588.5,352.5 589.5,352.5 590.5,352.5C 590.847,359.655 587.514,362.821 580.5,362C 578.433,359.313 578.766,356.646 581.5,354C 583.708,353.809 585.708,353.309 587.5,352.5 Z"/></g>
<g><path style="opacity:0.778" fill="#000000" d="M 621.5,336.5 C 630.29,334.698 635.79,338.031 638,346.5C 640.507,355.961 637.674,363.128 629.5,368C 624.848,369.193 620.681,368.36 617,365.5C 616.501,370.155 616.334,374.821 616.5,379.5C 614.5,379.5 612.5,379.5 610.5,379.5C 610.762,365.471 610.429,351.471 609.5,337.5C 612.365,337.055 614.865,337.722 617,339.5C 618.31,338.103 619.81,337.103 621.5,336.5 Z M 622.5,341.5 C 628.986,341.822 632.32,345.322 632.5,352C 631.776,355.86 630.109,359.193 627.5,362C 621.958,363.892 618.458,362.059 617,356.5C 616.561,352.789 616.894,349.122 618,345.5C 619.667,344.267 621.167,342.933 622.5,341.5 Z"/></g>
<g><path style="opacity:0.733" fill="#000000" d="M 689.5,336.5 C 693.514,336.334 697.514,336.501 701.5,337C 703.603,338.185 705.27,339.852 706.5,342C 707.457,350.458 707.79,358.958 707.5,367.5C 704.921,367.917 702.754,367.25 701,365.5C 694.692,370.021 689.025,369.355 684,363.5C 682.151,355.334 685.318,350.168 693.5,348C 696.167,347.667 698.833,347.333 701.5,347C 700.551,343.717 698.384,341.883 695,341.5C 692.119,342.028 689.285,342.694 686.5,343.5C 686.579,342.07 686.246,340.736 685.5,339.5C 686.624,338.141 687.958,337.141 689.5,336.5 Z M 698.5,352.5 C 699.5,352.5 700.5,352.5 701.5,352.5C 701.821,359.682 698.488,362.848 691.5,362C 689.309,359.42 689.642,356.92 692.5,354.5C 694.631,353.831 696.631,353.165 698.5,352.5 Z"/></g>
<g><path style="opacity:0.735" fill="#000000" d="M 891.5,336.5 C 895.182,336.335 898.848,336.501 902.5,337C 904.286,337.785 905.786,338.951 907,340.5C 908.235,349.443 909.068,358.443 909.5,367.5C 906.856,367.84 904.523,367.173 902.5,365.5C 895.995,370.055 890.162,369.389 885,363.5C 883.151,355.334 886.318,350.168 894.5,348C 897.167,347.667 899.833,347.333 902.5,347C 901.87,345.108 900.87,343.441 899.5,342C 895.339,341.333 891.339,341.833 887.5,343.5C 887.185,341.774 887.019,340.107 887,338.5C 888.622,337.901 890.122,337.234 891.5,336.5 Z M 900.5,352.5 C 901.693,352.97 902.36,353.97 902.5,355.5C 901.962,361.863 898.628,364.029 892.5,362C 890.876,358.794 891.542,356.128 894.5,354C 896.708,353.809 898.708,353.309 900.5,352.5 Z"/></g>
<g><path style="opacity:0.731" fill="#000000" d="M 984.5,336.5 C 988.182,336.335 991.848,336.501 995.5,337C 997.286,337.785 998.786,338.951 1000,340.5C 1001.23,349.443 1002.07,358.443 1002.5,367.5C 999.856,367.84 997.523,367.173 995.5,365.5C 988.995,370.055 983.162,369.389 978,363.5C 976.103,355.37 979.269,350.203 987.5,348C 990.167,347.667 992.833,347.333 995.5,347C 994.87,345.108 993.87,343.441 992.5,342C 988.647,341.413 984.98,341.746 981.5,343C 978.579,339.078 979.579,336.912 984.5,336.5 Z M 993.5,352.5 C 994.693,352.97 995.36,353.97 995.5,355.5C 994.962,361.863 991.628,364.029 985.5,362C 983.876,358.794 984.542,356.128 987.5,354C 989.708,353.809 991.708,353.309 993.5,352.5 Z"/></g>
<g><path style="opacity:0.744" fill="#000000" d="M 1051.5,336.5 C 1055.18,336.335 1058.85,336.501 1062.5,337C 1064.29,337.785 1065.79,338.951 1067,340.5C 1068.23,349.443 1069.07,358.443 1069.5,367.5C 1066.86,367.84 1064.52,367.173 1062.5,365.5C 1057.31,369.393 1052.14,369.393 1047,365.5C 1045,361.167 1045,356.833 1047,352.5C 1051.5,348.888 1056.67,347.055 1062.5,347C 1061.87,345.108 1060.87,343.441 1059.5,342C 1055.65,341.413 1051.98,341.746 1048.5,343C 1045.58,339.078 1046.58,336.912 1051.5,336.5 Z M 1060.5,352.5 C 1063.77,359.853 1061.11,363.187 1052.5,362.5C 1051.02,355.967 1053.69,352.634 1060.5,352.5 Z"/></g>
<g><path style="opacity:0.829" fill="#000000" d="M 1092.5,336.5 C 1094.5,336.5 1096.5,336.5 1098.5,336.5C 1098.5,338.5 1098.5,340.5 1098.5,342.5C 1094.97,342.346 1092.14,343.679 1090,346.5C 1089.5,353.492 1089.33,360.492 1089.5,367.5C 1087.5,367.5 1085.5,367.5 1083.5,367.5C 1083.76,357.461 1083.42,347.461 1082.5,337.5C 1084.5,337.5 1086.5,337.5 1088.5,337.5C 1088.35,338.552 1088.52,339.552 1089,340.5C 1089.69,338.65 1090.86,337.316 1092.5,336.5 Z"/></g>
<g><path style="opacity:0.861" fill="#000000" d="M 787.5,337.5 C 789.5,337.5 791.5,337.5 793.5,337.5C 793.5,347.5 793.5,357.5 793.5,367.5C 791.5,367.5 789.5,367.5 787.5,367.5C 787.5,357.5 787.5,347.5 787.5,337.5 Z"/></g>
<g><path style="opacity:0.789" fill="#000000" d="M 1013.5,337.5 C 1021.17,337.5 1028.83,337.5 1036.5,337.5C 1036.8,339.604 1036.47,341.604 1035.5,343.5C 1031.23,349.777 1026.56,355.777 1021.5,361.5C 1026.46,362.494 1031.46,362.827 1036.5,362.5C 1036.5,364.167 1036.5,365.833 1036.5,367.5C 1028.5,367.5 1020.5,367.5 1012.5,367.5C 1012.3,365.011 1012.8,362.677 1014,360.5C 1019.1,355.142 1023.6,349.308 1027.5,343C 1022.85,342.501 1018.18,342.334 1013.5,342.5C 1013.5,340.833 1013.5,339.167 1013.5,337.5 Z"/></g>
<g><path style="opacity:1" fill="#f1f1f1" d="M 174.5,360.5 C 184.807,360.177 188.64,364.844 186,374.5C 179.501,381.537 173.834,380.87 169,372.5C 168.312,367.352 170.145,363.352 174.5,360.5 Z"/></g>
<g><path style="opacity:1" fill="#f2f2f2" d="M 337.5,360.5 C 346.544,359.713 350.71,363.713 350,372.5C 344.811,381.422 339.144,381.755 333,373.5C 332.333,370.833 332.333,368.167 333,365.5C 334.707,363.963 336.207,362.296 337.5,360.5 Z"/></g>
</svg>
